<svg xmlns="http://www.w3.org/2000/svg" width="24" height="16" viewBox="0 0 24 16"><g fill="#929EAA" fill-rule="evenodd"><path d="M22.313 12.508l-5.518-2.705a.826.826 0 0 0-.813.048.866.866 0 0 0-.395.73v3.694h-13.9V1.725h13.9v3.387c0 .296.149.572.395.729a.823.823 0 0 0 .813.048l5.518-2.708v9.327zM23.35 1.622c-.405-.287-.924-.352-1.455-.146l-4.621 2.265V.862A.853.853 0 0 0 16.431 0H.844A.853.853 0 0 0 0 .862v14.275c0 .476.378.863.844.863h15.587a.854.854 0 0 0 .843-.863V11.95l4.688 2.296a1.48 1.48 0 0 0 1.388-.176 1.55 1.55 0 0 0 .65-1.267V2.89c0-.506-.243-.98-.65-1.268z"/><path d="M11.7 6.984H9.547v-2.2a.854.854 0 0 0-.844-.862.854.854 0 0 0-.843.863v2.199H5.71a.852.852 0 0 0-.844.862c0 .476.377.863.843.863H7.86v2.198c0 .477.378.863.843.863a.854.854 0 0 0 .844-.863V8.709H11.7a.854.854 0 0 0 .843-.863.853.853 0 0 0-.843-.862"/></g></svg>