<svg width="18" height="18" viewBox="0 0 32 32" fill="none" xmlns="http://www.w3.org/2000/svg"><path d="M28.148 24.765a16.575 16.575 0 0 1-1.64 2.948c-.861 1.229-1.567 2.08-2.111 2.552-.844.776-1.747 1.173-2.715 1.195-.694 0-1.532-.197-2.507-.598-.978-.4-1.877-.597-2.7-.597-.861 0-1.786.198-2.775.597-.99.4-1.788.61-2.398.63-.928.04-1.853-.369-2.776-1.227-.59-.514-1.326-1.395-2.21-2.643-.946-1.332-1.725-2.878-2.335-4.64C3.328 21.08 3 19.236 3 17.452c0-2.043.442-3.806 1.326-5.283a7.78 7.78 0 0 1 2.778-2.81A7.471 7.471 0 0 1 10.858 8.3c.737 0 1.704.228 2.905.676 1.197.45 1.966.677 2.303.677.252 0 1.107-.266 2.555-.798 1.37-.492 2.525-.696 3.472-.616 2.565.207 4.493 1.218 5.775 3.04-2.295 1.39-3.43 3.338-3.407 5.836.02 1.946.726 3.565 2.114 4.85a6.946 6.946 0 0 0 2.112 1.386c-.17.492-.349.962-.539 1.414zM22.264 1.61c0 1.525-.557 2.95-1.668 4.267-1.34 1.567-2.961 2.472-4.719 2.33a4.73 4.73 0 0 1-.035-.578c0-1.464.637-3.031 1.769-4.312.565-.65 1.284-1.188 2.155-1.619.87-.424 1.692-.658 2.466-.698.023.204.032.408.032.61z" fill="#000"/></svg>