<svg width="168" height="168" viewBox="0 0 168 168" fill="none" xmlns="http://www.w3.org/2000/svg"><path d="M164 84c0 44.183-35.817 80-80 80S4 128.183 4 84 39.817 4 84 4s80 35.817 80 80z" fill="#fff" stroke="#28E484" stroke-width="8"/><path fill-rule="evenodd" clip-rule="evenodd" d="M109.966 62.94c2.566 2.386 2.725 6.416.357 9.001L80.3 104.701a6.301 6.301 0 0 1-4.645 2.049 6.301 6.301 0 0 1-4.645-2.049L57.677 90.153c-2.368-2.585-2.209-6.615.356-9.001a6.29 6.29 0 0 1 8.935.359l8.687 9.479 25.377-27.691a6.289 6.289 0 0 1 8.934-.36z" fill="#28E484"/></svg>