<svg width="11" height="10" viewBox="0 0 11 10" fill="none" xmlns="http://www.w3.org/2000/svg"><path fill-rule="evenodd" clip-rule="evenodd" d="M10.65 7.961a1.198 1.198 0 0 1 0 1.692 1.189 1.189 0 0 1-.849.347c-.305 0-.61-.114-.843-.347l-2.96-2.96-2.96 2.96a1.185 1.185 0 0 1-.842.347c-.311 0-.616-.114-.85-.347a1.198 1.198 0 0 1 0-1.692l2.96-2.96-2.96-2.96a1.198 1.198 0 0 1 0-1.691 1.198 1.198 0 0 1 1.693 0l2.96 2.96L8.959.35a1.198 1.198 0 0 1 1.691 0 1.198 1.198 0 0 1 0 1.692l-2.96 2.96 2.96 2.96z" fill="#fff"/></svg>