<svg width="32" height="32" viewBox="0 0 32 32" fill="none" xmlns="http://www.w3.org/2000/svg"><circle cx="8" cy="8" r="8" transform="scale(2)" fill="#fff"/><mask id="a" maskUnits="userSpaceOnUse" x="6" y="6" width="20" height="20"><path fill-rule="evenodd" clip-rule="evenodd" d="M9.884 4.09H5.116v1.933H7.86C7.605 7.25 6.535 7.955 5.116 7.955 3.442 7.955 2.093 6.636 2.093 5c0-1.636 1.349-2.955 3.023-2.955A3 3 0 0 1 7 2.705L8.488 1.25A5.161 5.161 0 0 0 5.116 0C2.28 0 0 2.227 0 5s2.28 5 5.116 5C7.674 10 10 8.182 10 5c0-.295-.047-.614-.116-.91z" transform="matrix(2 0 0 2 6 6)" fill="#fff"/></mask><g mask="url(#a)"><path d="M5.07 21.909V10.091L12.977 16 5.07 21.909z" fill="#FBBC05"/></g><mask id="b" maskUnits="userSpaceOnUse" x="6" y="6" width="20" height="20"><path fill-rule="evenodd" clip-rule="evenodd" d="M9.884 4.09H5.116v1.933H7.86C7.605 7.25 6.535 7.955 5.116 7.955 3.442 7.955 2.093 6.636 2.093 5c0-1.636 1.349-2.955 3.023-2.955A3 3 0 0 1 7 2.705L8.488 1.25A5.161 5.161 0 0 0 5.116 0C2.28 0 0 2.227 0 5s2.28 5 5.116 5C7.674 10 10 8.182 10 5c0-.295-.047-.614-.116-.91z" transform="matrix(2 0 0 2 6 6)" fill="#fff"/></mask><g mask="url(#b)"><path d="M5.07 10.09L12.977 16l3.256-2.773 11.162-1.773V5.091H5.07v5z" fill="#EA4335"/></g><mask id="c" maskUnits="userSpaceOnUse" x="6" y="6" width="20" height="20"><path fill-rule="evenodd" clip-rule="evenodd" d="M9.884 4.09H5.116v1.933H7.86C7.605 7.25 6.535 7.955 5.116 7.955 3.442 7.955 2.093 6.636 2.093 5c0-1.636 1.349-2.955 3.023-2.955A3 3 0 0 1 7 2.705L8.488 1.25A5.161 5.161 0 0 0 5.116 0C2.28 0 0 2.227 0 5s2.28 5 5.116 5C7.674 10 10 8.182 10 5c0-.295-.047-.614-.116-.91z" transform="matrix(2 0 0 2 6 6)" fill="#fff"/></mask><g mask="url(#c)"><path d="M5.07 21.909l13.953-10.455 3.675.455 4.697-6.818v21.818H5.07v-5z" fill="#34A853"/></g><mask id="d" maskUnits="userSpaceOnUse" x="6" y="6" width="20" height="20"><path fill-rule="evenodd" clip-rule="evenodd" d="M9.884 4.09H5.116v1.933H7.86C7.605 7.25 6.535 7.955 5.116 7.955 3.442 7.955 2.093 6.636 2.093 5c0-1.636 1.349-2.955 3.023-2.955A3 3 0 0 1 7 2.705L8.488 1.25A5.161 5.161 0 0 0 5.116 0C2.28 0 0 2.227 0 5s2.28 5 5.116 5C7.674 10 10 8.182 10 5c0-.295-.047-.614-.116-.91z" transform="matrix(2 0 0 2 6 6)" fill="#fff"/></mask><g mask="url(#d)"><path d="M27.395 26.909l-14.418-10.91-1.86-1.363 16.278-4.545v16.818z" fill="#4285F4"/></g></svg>