<svg width="120" height="120" viewBox="0 0 120 120" fill="none" xmlns="http://www.w3.org/2000/svg"><path fill="#fff" d="M0 0h120v120H0z"/><path d="M24 111.3h72c2.2 0 4-1.8 4-4s-1.8-4-4-4H24c-2.2 0-4 1.8-4 4s1.8 4 4 4zM108.8 111.3c2.2 0 4-1.8 4-4s-1.8-4-4-4-4 1.8-4 4 1.8 4 4 4z" fill="#F4F4F6"/><path d="M52.6 31.8h-10v14.7h10V31.8zM40.5 49h-10v14h10V49zM67.5 14.3V43h10V14.3c0-2.9-2.2-5.3-5-5.3s-5 2.4-5 5.3z" fill="#F9AAAB"/><path d="M80.2 107.3H39.8c-2.6 0-4.8-2.1-4.8-4.8V42.1c0-2.6 2.1-4.8 4.8-4.8h40.4c2.6 0 4.8 2.1 4.8 4.8v60.4c0 2.7-2.1 4.8-4.8 4.8z" fill="#A0DBFC"/><path d="M76 44.6H44a2 2 0 0 0-2 2v18.8a2 2 0 0 0 2 2h32a2 2 0 0 0 2-2V46.6a2 2 0 0 0-2-2z" fill="#fff"/><path d="M44 75.5h32M44 83.4h32M44 91.3h32M44 99.2h32" stroke="#fff" stroke-width="4" stroke-miterlimit="10" stroke-linecap="round" stroke-linejoin="round"/><path fill-rule="evenodd" clip-rule="evenodd" d="M60 51a5 5 0 1 0 0 10 5 5 0 0 0 0-10zm-9 5a9 9 0 1 1 18 0 9 9 0 0 1-18 0z" fill="#F9AAAB"/><path fill-rule="evenodd" clip-rule="evenodd" d="M66.414 49.586a2 2 0 0 1 0 2.828l-9.9 9.9a2 2 0 1 1-2.828-2.828l9.9-9.9a2 2 0 0 1 2.828 0z" fill="#F9AAAB"/></svg>