<svg xmlns="http://www.w3.org/2000/svg" width="18" height="18" viewBox="0 0 18 18"><g fill="none" fill-rule="evenodd" opacity=".9"><path fill="#0071C5" d="M9.326 0h1.213v4.167c2.1.004 4.198-.007 6.295 0 .414-.021.98.102.971.637.077 2.635.002 5.277.037 7.915.008.466-.006 1.202-.624 1.208-2.224.08-4.454.006-6.68.031v3.959H9.283c-3.09-.577-6.187-1.109-9.28-1.667C0 11.39 0 6.53 0 1.67 3.11 1.11 6.22.57 9.326 0"/><path fill="#FFF" d="M10.539 4.792c2.245.002 4.49-.007 6.735.004-.038.273-.12.542-.342.712-1.342 1.286-2.676 2.577-4.014 3.867-.805-.748-1.587-1.52-2.38-2.281V4.792zm-6.193.762c1.143-.444 2.479.18 2.963 1.315.661 1.562.568 3.7-.745 4.881-1.21 1.065-3.24.458-3.791-1.054-.726-1.744-.373-4.427 1.573-5.142"/><path fill="#FFF" d="M13.555 9.56c1.218-1.19 2.446-2.37 3.67-3.554.007 2.442 0 4.886.003 7.327h-6.69c0-1.816-.002-3.633.003-5.448.756.688 1.433 1.471 2.235 2.098.33.063.554-.23.779-.423"/><path fill="#0071C5" d="M6.01 7.358c.406.825.404 1.832.138 2.702-.188.62-.847 1.13-1.486.886-.796-.258-1.038-1.23-1.046-1.99-.01-.787.167-1.768.927-2.15.539-.264 1.214.004 1.467.552z"/></g></svg>