<svg width="32" height="32" viewBox="0 0 32 32" fill="none" xmlns="http://www.w3.org/2000/svg"><g fill-rule="evenodd" clip-rule="evenodd" fill="#516BF0"><path d="M3.265 0C1.463 0 0 1.549 0 3.457v.461h27.429v-.46c0-1.91-1.463-3.458-3.266-3.458H3.265zM0 20.053V5.878h27.429v6.501a11.39 11.39 0 0 0-4.572-.95c-4.395 0-8.21 2.48-10.122 6.118v-.873a1 1 0 0 0-1-1H9.816a1 1 0 0 0-1 1v1.918a1 1 0 0 0 1 1h1.919c.058 0 .116-.005.171-.015a11.43 11.43 0 0 0-.46 3.933H3.266C1.463 23.51 0 21.961 0 20.053zm3.939-4.38a1 1 0 0 0-1 1v1.919a1 1 0 0 0 1 1h1.918a1 1 0 0 0 1-1v-1.918a1 1 0 0 0-1-1H3.94z"/><path d="M27.516 26.789a6.088 6.088 0 0 1-4.659 2.163 6.088 6.088 0 0 1-4.659-2.163 1.128 1.128 0 0 1-.11-1.273c.88-1.577 2.685-2.659 4.769-2.659s3.89 1.082 4.77 2.66c.224.407.19.917-.11 1.272zm-4.659-10.027a2.476 2.476 0 1 1 0 4.952 2.476 2.476 0 0 1 0-4.952zm0-3.048c-5.048 0-9.143 4.096-9.143 9.143 0 5.048 4.095 9.143 9.143 9.143C27.905 32 32 27.905 32 22.857c0-5.047-4.095-9.143-9.143-9.143z"/></g></svg>