<svg width="34" height="29" viewBox="0 0 34 29" fill="none" xmlns="http://www.w3.org/2000/svg"><path fill-rule="evenodd" clip-rule="evenodd" d="M0 4.265C0 1.91 1.813 0 4.048 0h25.904C32.187 0 34 1.91 34 4.265v.568H0v-.568zM0 7.25v17.485C0 27.09 1.813 29 4.048 29h25.904C32.187 29 34 27.09 34 24.735V7.25H0zm4.643 12.083a1 1 0 0 0-1 1v2.834a1 1 0 0 0 1 1H7.5a1 1 0 0 0 1-1v-2.834a1 1 0 0 0-1-1H4.643zm6.286 1a1 1 0 0 1 1-1h2.857a1 1 0 0 1 1 1v2.834a1 1 0 0 1-1 1h-2.857a1 1 0 0 1-1-1v-2.834zm8.285-1a1 1 0 0 0-1 1v2.834a1 1 0 0 0 1 1h2.857a1 1 0 0 0 1-1v-2.834a1 1 0 0 0-1-1h-2.857zm6.286 1a1 1 0 0 1 1-1h2.857a1 1 0 0 1 1 1v2.834a1 1 0 0 1-1 1H26.5a1 1 0 0 1-1-1v-2.834z" fill="#516BF0"/></svg>