<svg width="28" height="28" viewBox="0 0 28 28" fill="none" xmlns="http://www.w3.org/2000/svg"><g fill-rule="evenodd" clip-rule="evenodd" fill="#D4D9DD"><path d="M2.857 0C1.28 0 0 1.355 0 3.025v.403h24v-.403C24 1.355 22.72 0 21.143 0H2.857zM0 17.546V5.143h24v5.689A9.968 9.968 0 0 0 20 10a9.998 9.998 0 0 0-8.857 5.353v-.639a1 1 0 0 0-1-1H8.714a1 1 0 0 0-1 1v1.429a1 1 0 0 0 1 1h1.429a.998.998 0 0 0 .283-.04 9.995 9.995 0 0 0-.41 3.468H2.857C1.28 20.572 0 19.216 0 17.547zm3.572-3.832a1 1 0 0 0-1 1v1.429a1 1 0 0 0 1 1H5a1 1 0 0 0 1-1v-1.429a1 1 0 0 0-1-1H3.572z"/><path d="M24.077 23.44A5.327 5.327 0 0 1 20 25.333a5.327 5.327 0 0 1-4.077-1.893.987.987 0 0 1-.096-1.113C16.597 20.947 18.177 20 20 20s3.403.947 4.173 2.327a.987.987 0 0 1-.096 1.113zM20 14.667A2.167 2.167 0 1 1 20 19a2.167 2.167 0 0 1 0-4.333zM20 12c-4.417 0-8 3.583-8 8s3.583 8 8 8 8-3.583 8-8-3.583-8-8-8z"/></g></svg>