<svg width="32" height="24" viewBox="0 0 32 24" fill="none" xmlns="http://www.w3.org/2000/svg"><path fill-rule="evenodd" clip-rule="evenodd" d="M27.42 6.621l-8.773 6.502c-.794.59-1.72.877-2.647.877a4.422 4.422 0 0 1-2.647-.877L4.58 6.621c-.607-.453-.76-1.344-.347-1.997.42-.654 1.247-.82 1.854-.374l8.78 6.502c.68.503 1.586.503 2.266 0l8.78-6.502c.607-.446 1.434-.28 1.854.374.413.653.26 1.544-.347 1.997zM28.667 0H3.333A3.335 3.335 0 0 0 0 3.333v17.334A3.335 3.335 0 0 0 3.333 24h25.334A3.335 3.335 0 0 0 32 20.667V3.333A3.335 3.335 0 0 0 28.667 0z" fill="#47525D"/></svg>