<svg width="18" height="18" viewBox="0 0 18 18" fill="none" xmlns="http://www.w3.org/2000/svg"><path d="M3.782 11.375c0 1.04-.85 1.89-1.891 1.89-1.04 0-1.891-.85-1.891-1.89 0-1.041.85-1.891 1.89-1.891h1.892v1.89zM4.735 11.375c0-1.041.85-1.891 1.89-1.891 1.041 0 1.891.85 1.891 1.89v4.735c0 1.04-.85 1.891-1.89 1.891-1.041 0-1.891-.85-1.891-1.89v-4.735z" fill="#E01E5A"/><path d="M6.625 3.782c-1.04 0-1.89-.85-1.89-1.891C4.735.85 5.585 0 6.625 0c1.041 0 1.891.85 1.891 1.89v1.892h-1.89zM6.625 4.735c1.041 0 1.891.85 1.891 1.89 0 1.041-.85 1.891-1.89 1.891H1.89C.85 8.516 0 7.666 0 6.626c0-1.041.85-1.891 1.89-1.891h4.735z" fill="#36C5F0"/><path d="M14.218 6.625c0-1.04.85-1.89 1.891-1.89 1.04 0 1.891.85 1.891 1.89 0 1.041-.85 1.891-1.89 1.891h-1.892v-1.89zM13.265 6.625c0 1.041-.85 1.891-1.89 1.891-1.041 0-1.891-.85-1.891-1.89V1.89c0-1.04.85-1.891 1.89-1.891 1.041 0 1.891.85 1.891 1.89v4.735z" fill="#2EB67D"/><path d="M11.375 14.218c1.04 0 1.89.85 1.89 1.891 0 1.04-.85 1.891-1.89 1.891-1.041 0-1.891-.85-1.891-1.89v-1.892h1.89zM11.375 13.265c-1.041 0-1.891-.85-1.891-1.89 0-1.041.85-1.891 1.89-1.891h4.735c1.04 0 1.891.85 1.891 1.89 0 1.041-.85 1.891-1.89 1.891h-4.735z" fill="#ECB22E"/></svg>