<svg width="24" height="24" viewBox="0 0 24 24" fill="none" xmlns="http://www.w3.org/2000/svg"><circle cx="12" cy="12" r="12" fill="#fff"/><path d="M14.37 4.986a1.438 1.438 0 0 0-1.798-.919 1.44 1.44 0 0 0-.919 1.8l3.687 11.345c.25.696 1.01 1.09 1.732.88.761-.223 1.22-1.024.971-1.76 0-.026-3.673-11.346-3.673-11.346z" fill="#ECB32D"/><path d="M8.662 6.838a1.438 1.438 0 0 0-1.798-.92 1.44 1.44 0 0 0-.918 1.8l3.687 11.346c.25.696 1.01 1.09 1.732.88.761-.224 1.22-1.025.97-1.76 0-.026-3.673-11.346-3.673-11.346z" fill="#63C1A0"/><path d="M19.015 14.375a1.44 1.44 0 0 0 .918-1.799 1.438 1.438 0 0 0-1.798-.92L6.785 15.36a1.424 1.424 0 0 0-.878 1.734c.223.761 1.023 1.22 1.758.971.026 0 11.35-3.69 11.35-3.69z" fill="#E01A59"/><path d="M9.147 17.593c.735-.237 1.693-.552 2.716-.88-.236-.736-.55-1.694-.879-2.718l-2.716.88.88 2.718z" fill="#331433"/><path d="M14.868 15.728c1.024-.328 1.981-.643 2.716-.88-.236-.735-.55-1.694-.879-2.718l-2.716.88.88 2.718z" fill="#D62027"/><path d="M17.151 8.663a1.44 1.44 0 0 0 .919-1.799 1.438 1.438 0 0 0-1.798-.919L4.936 9.635a1.424 1.424 0 0 0-.88 1.733c.224.762 1.024 1.222 1.759.972.026 0 11.336-3.677 11.336-3.677z" fill="#89D3DF"/><path d="M7.297 11.868c.735-.237 1.693-.552 2.716-.88-.328-1.024-.643-1.983-.879-2.718l-2.716.88.88 2.718z" fill="#258B74"/><path d="M13.005 10.016c1.024-.328 1.981-.643 2.716-.88-.328-1.024-.643-1.983-.879-2.718l-2.716.88.88 2.718z" fill="#819C3C"/></svg>