<svg xmlns="http://www.w3.org/2000/svg" width="18" height="18" viewBox="0 0 18 18"><g fill="none"><path fill="#ECB32D" d="M11.605 1.185A1.604 1.604 0 0 0 9.6.161a1.604 1.604 0 0 0-1.024 2.005l4.112 12.644a1.587 1.587 0 0 0 1.932.98c.848-.249 1.36-1.141 1.082-1.96 0-.03-4.097-12.645-4.097-12.645z"/><path fill="#63C1A0" d="M5.239 3.249a1.604 1.604 0 0 0-2.005-1.025A1.604 1.604 0 0 0 2.21 4.23l4.112 12.644a1.587 1.587 0 0 0 1.932.98c.848-.248 1.36-1.14 1.083-1.96 0-.03-4.098-12.644-4.098-12.644z"/><path fill="#E01A59" d="M16.785 11.649a1.604 1.604 0 0 0 1.025-2.005 1.604 1.604 0 0 0-2.005-1.024L3.146 12.746a1.587 1.587 0 0 0-.98 1.932c.249.849 1.141 1.361 1.96 1.083.03 0 12.66-4.112 12.66-4.112z"/><path fill="#331433" d="M5.78 15.234c.82-.263 1.888-.614 3.03-.98-.264-.82-.615-1.888-.98-3.03l-3.03.98.98 3.03z"/><path fill="#D62027" d="M12.161 13.156c1.141-.366 2.21-.717 3.03-.98-.264-.82-.615-1.888-.981-3.03l-3.03.98.981 3.03z"/><path fill="#89D3DF" d="M14.707 5.283a1.604 1.604 0 0 0 1.025-2.005 1.604 1.604 0 0 0-2.005-1.024L1.083 6.366a1.587 1.587 0 0 0-.98 1.932c.248.848 1.14 1.36 1.96 1.082.03 0 12.644-4.097 12.644-4.097z"/><path fill="#258B74" d="M3.717 8.854c.82-.264 1.888-.615 3.03-.98-.367-1.142-.718-2.21-.981-3.03l-3.03.98.981 3.03z"/><path fill="#819C3C" d="M10.083 6.79c1.141-.366 2.21-.717 3.03-.98-.367-1.142-.718-2.21-.981-3.03l-3.03.981.98 3.03z"/></g></svg>