<svg xmlns="http://www.w3.org/2000/svg" xmlns:xlink="http://www.w3.org/1999/xlink" width="24" height="24" viewBox="0 0 24 24"><defs><path id="a" d="M11.904 0l7.072 7.077a1.127 1.127 0 0 1-1.593 1.591l-4.356-4.36v13.316a1.125 1.125 0 0 1-2.25 0V4.31L6.421 8.668A1.125 1.125 0 1 1 4.83 7.076L11.904 0zM22.84 21c.641 0 1.16.504 1.16 1.125s-.519 1.125-1.16 1.125H1.163C.52 23.25 0 22.746 0 22.125S.52 21 1.163 21H22.84z"/></defs><g fill="none" fill-rule="evenodd"><mask id="b" fill="#fff"><use xlink:href="#a"/></mask><use fill="#48525D" xlink:href="#a"/><g fill="#929EAA" mask="url(#b)"><path d="M0 0h24v24H0z"/></g></g></svg>