<svg width="16" height="16" viewBox="0 0 16 16" fill="none" xmlns="http://www.w3.org/2000/svg"><path fill-rule="evenodd" clip-rule="evenodd" d="M16 8.04c0-2.2-1.26-4.05-3.104-4.936A5.385 5.385 0 0 0 8.04 0c-2.2 0-4.05 1.26-4.936 3.104C1.21 3.99 0 5.9 0 8.04c0 2.12 1.26 3.97 3.104 4.856C3.99 14.79 5.9 16 8.04 16c2.12 0 3.97-1.26 4.856-3.104A5.385 5.385 0 0 0 16 8.04zM9.631 6.29c.2.536.319 1.094.319 1.67 0 .588-.12 1.145-.319 1.672a4.795 4.795 0 0 1-1.671.319 4.71 4.71 0 0 1-1.672-.319 4.794 4.794 0 0 1-.318-1.671c0-.587.119-1.145.318-1.672a4.795 4.795 0 0 1 1.672-.318c.587 0 1.134.12 1.671.318zM8.04 1.036c1.284 0 2.516.581 3.343 1.592a2.21 2.21 0 0 0-.876-.08 5.254 5.254 0 0 0-4.935 3.185c-.04-.018-.04-.018 0 0a4.377 4.377 0 0 0-.478 2.229 2.21 2.21 0 0 0 .08.875 4.36 4.36 0 0 1-1.592-3.343A4.45 4.45 0 0 1 8.04 1.037zM1.034 7.964c0-1.284.582-2.516 1.592-3.343a2.21 2.21 0 0 0-.08.876 5.254 5.254 0 0 0 3.185 4.935c-.018.04-.018.04 0 0 .671.345 1.41.513 2.229.478.275.035.58.005.875-.08a4.36 4.36 0 0 1-3.343 1.592 4.45 4.45 0 0 1-4.458-4.458zM7.96 14.81a4.328 4.328 0 0 1-3.343-1.592c.295.085.6.114.875.08a5.254 5.254 0 0 0 4.936-3.185c.04.018.04.018 0 0 .345-.671.512-1.41.477-2.229.035-.274.006-.58-.08-.875a4.36 4.36 0 0 1 1.593 3.343 4.45 4.45 0 0 1-4.458 4.458zm2.15-9.235c.018-.04.018-.04 0 0a4.377 4.377 0 0 0-2.229-.478 2.21 2.21 0 0 0-.875.08 4.36 4.36 0 0 1 3.343-1.592 4.45 4.45 0 0 1 4.458 4.458 4.328 4.328 0 0 1-1.592 3.343c.085-.296.114-.6.08-.876a5.254 5.254 0 0 0-3.185-4.935z" fill="#000"/></svg>