<svg width="25" height="25" viewBox="0 0 25 25" fill="none" xmlns="http://www.w3.org/2000/svg"><path d="M23.475 12.5l1.242-1.242a.962.962 0 0 0-1.36-1.36l-1.64 1.64h-6.896l3.846-3.846h1.525a.962.962 0 0 0 0-1.923h-.962v-.961a.962.962 0 0 0-1.922 0v1.525l-3.847 3.846V3.283l1.643-1.642a.962.962 0 0 0-1.36-1.36L12.5 1.525 11.258.281a.962.962 0 0 0-1.36 1.36l1.64 1.642v6.896L7.693 6.333V4.808a.962.962 0 0 0-1.923 0v.961h-.961a.962.962 0 0 0 0 1.923h1.525l3.846 3.847H3.283l-1.64-1.643a.962.962 0 0 0-1.36 1.36L1.525 12.5.281 13.742a.962.962 0 0 0 1.362 1.362l1.64-1.643h6.896l-3.846 3.847H4.808a.962.962 0 0 0 0 1.922h.961v.962a.962.962 0 0 0 1.923 0v-1.525l3.847-3.846v6.896l-1.643 1.642a.962.962 0 0 0 1.36 1.36l1.244-1.244 1.242 1.242a.96.96 0 0 0 1.362.002.962.962 0 0 0 0-1.36l-1.643-1.642v-6.896l3.847 3.846v1.525a.962.962 0 0 0 1.922 0v-.962h.962a.962.962 0 0 0 0-1.922h-1.525l-3.846-3.847h6.896l1.642 1.643a.966.966 0 0 0 1.36 0 .962.962 0 0 0 0-1.36L23.475 12.5z" fill="#fff"/></svg>