<svg xmlns="http://www.w3.org/2000/svg" xmlns:xlink="http://www.w3.org/1999/xlink" width="40" height="40" viewBox="0 0 40 40"><defs><path id="a" d="M0 40V0h40v40z"/></defs><g fill="none" fill-rule="evenodd"><mask id="b" fill="#fff"><use xlink:href="#a"/></mask><path fill="#48525D" d="M29.17 36.047c-.125.072-.244.155-.371.224a18.364 18.364 0 0 1-6.722 2.106c-.066.007-.131.022-.197.029a18.82 18.82 0 0 1-3.76 0c-.063-.006-.126-.022-.19-.028a18.381 18.381 0 0 1-6.73-2.108c-.112-.061-.217-.135-.33-.2a18.464 18.464 0 0 1-1.16-.704 18.77 18.77 0 0 1-2.786-2.307C10.06 29.03 14.902 26.644 20 26.644c5.098 0 9.94 2.387 13.075 6.415a18.733 18.733 0 0 1-2.788 2.308 18.59 18.59 0 0 1-1.118.68M20 1.499c10.2 0 18.5 8.299 18.5 18.5a18.41 18.41 0 0 1-4.397 11.948C30.68 27.673 25.479 25.145 20 25.145S9.32 27.673 5.898 31.947A18.406 18.406 0 0 1 1.498 20c0-10.202 8.3-18.501 18.503-18.501m14.637 32.084C37.954 30.012 40 25.246 40 20 40 8.972 31.028 0 20 0 8.974 0 0 8.972 0 20c0 5.246 2.046 10.012 5.36 13.583.014.015.02.034.035.049.034.037.072.068.107.104.37.39.757.763 1.157 1.122.118.106.233.216.352.319.347.298.708.576 1.074.849.192.144.38.294.577.432.277.19.565.362.85.539.296.185.589.375.892.543.175.096.359.176.537.267.418.215.837.429 1.27.613.05.022.105.038.156.059A19.734 19.734 0 0 0 20 39.999a19.729 19.729 0 0 0 7.637-1.522c.05-.02.102-.035.152-.056a20.07 20.07 0 0 0 1.27-.614c.178-.091.362-.171.536-.267.304-.168.595-.358.89-.542.288-.178.577-.35.853-.541.195-.136.383-.286.574-.43.367-.273.73-.552 1.077-.85.119-.103.233-.212.349-.317.4-.361.79-.733 1.16-1.125.035-.036.073-.066.108-.103.013-.015.019-.033.03-.05" mask="url(#b)"/><path fill="#48525D" d="M20 8.237a6.958 6.958 0 0 1 6.95 6.95 6.957 6.957 0 0 1-6.95 6.95 6.958 6.958 0 0 1-6.95-6.95A6.959 6.959 0 0 1 20 8.238m0 15.4c4.659 0 8.449-3.79 8.449-8.45 0-4.658-3.79-8.45-8.448-8.45-4.66 0-8.45 3.792-8.45 8.45 0 4.66 3.79 8.45 8.45 8.45"/><path fill="#48525D" d="M19.998 19.91A3.72 3.72 0 0 0 23.615 17a.75.75 0 0 0-.571-.891.758.758 0 0 0-.893.572 2.216 2.216 0 0 1-2.153 1.73 2.211 2.211 0 0 1-2.16-1.758.75.75 0 0 0-1.468.3 3.715 3.715 0 0 0 3.628 2.958"/><path fill="#A3C8EA" d="M29.17 36.047c-.125.072-.244.155-.371.224a18.364 18.364 0 0 1-6.722 2.106c-.066.007-.131.022-.197.029a18.82 18.82 0 0 1-3.76 0c-.063-.006-.126-.022-.19-.028a18.381 18.381 0 0 1-6.73-2.108c-.112-.061-.217-.135-.33-.2a18.464 18.464 0 0 1-1.16-.704 18.77 18.77 0 0 1-2.786-2.307C10.06 29.03 14.902 26.644 20 26.644c5.098 0 9.94 2.387 13.075 6.415a18.733 18.733 0 0 1-2.788 2.308 18.59 18.59 0 0 1-1.118.68"/></g></svg>