<svg xmlns="http://www.w3.org/2000/svg" width="40" height="40" viewBox="0 0 40 40"><g fill="#D4D9DD" fill-rule="evenodd"><path d="M29.17 36.046c-.125.072-.244.155-.371.225a18.362 18.362 0 0 1-6.722 2.105c-.066.007-.131.023-.197.03a18.525 18.525 0 0 1-3.76 0c-.063-.007-.126-.022-.19-.029a18.361 18.361 0 0 1-6.73-2.107c-.112-.06-.217-.135-.33-.199a18.965 18.965 0 0 1-1.16-.706 18.762 18.762 0 0 1-2.786-2.306C10.06 29.03 14.902 26.643 20 26.643c5.098 0 9.94 2.387 13.075 6.416a18.726 18.726 0 0 1-2.788 2.307c-.361.243-.74.463-1.118.68M20 1.5c10.2 0 18.5 8.3 18.5 18.5 0 4.553-1.66 8.72-4.397 11.947-3.422-4.275-8.624-6.803-14.102-6.803S9.32 27.672 5.898 31.946A18.403 18.403 0 0 1 1.498 20c0-10.202 8.3-18.5 18.503-18.5m14.637 32.083C37.954 30.011 40 25.246 40 20 40 8.971 31.028 0 20 0 8.974 0 0 8.971 0 20c0 5.245 2.046 10.011 5.36 13.582.014.016.02.035.035.05.034.037.072.067.107.103.37.391.757.763 1.157 1.123.118.106.233.216.352.32.347.296.708.574 1.074.847.192.145.38.295.577.432.277.191.565.362.85.54.296.184.589.375.892.543.175.095.359.176.537.267.418.215.837.428 1.27.613.05.021.105.037.156.058A19.734 19.734 0 0 0 20 40a19.729 19.729 0 0 0 7.637-1.523c.05-.02.102-.036.152-.057.433-.184.852-.398 1.27-.613.178-.09.362-.172.536-.268.304-.167.595-.358.89-.542.288-.177.577-.349.853-.54.195-.137.383-.286.574-.43.367-.274.73-.553 1.077-.85.119-.103.233-.213.349-.318.4-.36.79-.733 1.16-1.125.035-.036.073-.066.108-.102.013-.015.019-.034.03-.049"/><path d="M20 8.237a6.958 6.958 0 0 1 6.95 6.95 6.957 6.957 0 0 1-6.95 6.95 6.958 6.958 0 0 1-6.95-6.95A6.959 6.959 0 0 1 20 8.238m0 15.4c4.659 0 8.449-3.79 8.449-8.45 0-4.66-3.79-8.45-8.448-8.45-4.66 0-8.45 3.79-8.45 8.45 0 4.66 3.79 8.45 8.45 8.45"/></g></svg>