<svg width="68" height="68" viewBox="0 0 68 68" fill="none" xmlns="http://www.w3.org/2000/svg"><path fill="#fff" d="M0 0h68v68H0z"/><g clip-path="url(#a)"><path d="M21.356 20.082a4.888 4.888 0 1 0 0-9.776 4.888 4.888 0 0 0 0 9.776z" fill="url(#b)"/><path d="M29.431 10.625a2.656 2.656 0 1 0 0-5.312 2.656 2.656 0 0 0 0 5.312z" fill="url(#c)"/><path d="M54.081 63.325a2.656 2.656 0 1 0 0-5.312 2.656 2.656 0 0 0 0 5.312z" fill="url(#d)"/><path d="M60.563 53.763H7.968c-.85 0-1.594-.744-1.594-1.594 0-.85.744-1.594 1.594-1.594h52.593c.85 0 1.594.744 1.594 1.594 0 .85-.637 1.594-1.593 1.594z" fill="url(#e)"/><path d="M55.462 48.556h-42.5c-.85 0-1.593-.743-1.593-1.593V18.7c0-.85.744-1.594 1.594-1.594h42.5c.85 0 1.593.744 1.593 1.594v28.263c0 .85-.637 1.593-1.593 1.593zm-40.8-3.187h39.313V20.294H14.662v25.075z" fill="url(#f)"/></g><rect x="32.938" y="23.375" width="12.75" height="13.813" rx="1" fill="url(#g)"/><defs><linearGradient id="b" x1="16.462" y1="15.218" x2="26.287" y2="15.218" gradientUnits="userSpaceOnUse"><stop stop-color="#FE7A60"/><stop offset="1" stop-color="#FD5F60"/></linearGradient><linearGradient id="c" x1="26.696" y1="8.015" x2="32.102" y2="8.015" gradientUnits="userSpaceOnUse"><stop stop-color="#FE7A60"/><stop offset="1" stop-color="#FD5F60"/></linearGradient><linearGradient id="d" x1="51.408" y1="60.714" x2="56.813" y2="60.714" gradientUnits="userSpaceOnUse"><stop stop-color="#FE7A60"/><stop offset="1" stop-color="#FD5F60"/></linearGradient><linearGradient id="e" x1="6.375" y1="52.133" x2="62.182" y2="52.133" gradientUnits="userSpaceOnUse"><stop stop-color="#19AEFF"/><stop offset="1" stop-color="#516BF0"/></linearGradient><linearGradient id="f" x1="11.46" y1="32.834" x2="57.096" y2="32.834" gradientUnits="userSpaceOnUse"><stop stop-color="#19AEFF"/><stop offset="1" stop-color="#516BF0"/></linearGradient><linearGradient id="g" x1="32.938" y1="30.281" x2="45.688" y2="30.281" gradientUnits="userSpaceOnUse"><stop stop-color="#FE7A60"/><stop offset="1" stop-color="#FD5E60"/></linearGradient><clipPath id="a"><path fill="#fff" transform="translate(6.375 5.313)" d="M0 0h55.781v58.119H0z"/></clipPath></defs></svg>