<svg xmlns="http://www.w3.org/2000/svg" width="50" height="36" viewBox="0 0 50 36"><g fill="#D4D9DD" fill-rule="evenodd"><path d="M1.528 34.479h46.944V1.521H1.528v32.958zM49.236 0H.764A.763.763 0 0 0 0 .761v34.478c0 .42.342.761.764.761h48.472a.763.763 0 0 0 .764-.761V.761A.763.763 0 0 0 49.236 0z"/><path d="M22.708 30.422h4.582v-4.563h-4.582v4.563zm-.763 1.522h6.109a.763.763 0 0 0 .764-.761v-6.084a.763.763 0 0 0-.764-.761h-6.109a.763.763 0 0 0-.764.761v6.084c0 .42.342.761.764.761zm11.965-1.522h4.583v-4.563H33.91v4.563zm-.764 1.522h6.11a.763.763 0 0 0 .764-.761v-6.084a.763.763 0 0 0-.764-.761h-6.11a.763.763 0 0 0-.764.761v6.084c0 .42.342.761.764.761zm-21.64-1.522h4.583v-4.563h-4.583v4.563zm-.763 1.522h6.11a.763.763 0 0 0 .764-.761v-6.084a.763.763 0 0 0-.764-.761h-6.11a.763.763 0 0 0-.764.761v6.084c0 .42.343.761.764.761z"/></g></svg>