<svg xmlns="http://www.w3.org/2000/svg" xmlns:xlink="http://www.w3.org/1999/xlink" width="56" height="40" viewBox="0 0 56 40"><defs><path id="a" d="M0 40h56V0H0z"/></defs><g fill="none" fill-rule="evenodd"><mask id="b" fill="#fff"><use xlink:href="#a"/></mask><path fill="#47525D" d="M29.837 29.695h4.357v-4.418h-4.357v4.418zm-.75 1.52h5.857c.414 0 .75-.34.75-.76v-5.938a.756.756 0 0 0-.75-.761h-5.857a.756.756 0 0 0-.75.76v5.94c0 .42.337.76.75.76zm11.49-1.52h4.357v-4.418h-4.357v4.418zm-.75 1.52h5.857c.413 0 .75-.34.75-.76v-5.938a.756.756 0 0 0-.75-.761h-5.857a.756.756 0 0 0-.75.76v5.94c0 .42.336.76.75.76z" mask="url(#b)"/><path fill="#47525D" d="M54.499 33.654H24.476c.098-.158.185-.321.276-.483.049-.088.101-.172.148-.262.183-.342.348-.692.499-1.048.028-.063.051-.128.078-.192.131-.324.251-.653.356-.987.02-.063.042-.126.061-.189.119-.396.223-.796.305-1.203.004-.015.005-.031.009-.046.074-.378.13-.76.173-1.146l.029-.285c.036-.409.062-.819.062-1.234 0-7.4-5.938-13.421-13.237-13.421a13.101 13.101 0 0 0-2.299.217c-.476.085-.945.192-1.403.328V1.521h44.966v32.133zm-33.702 2.011c-.124.107-.254.205-.382.306-.164.129-.328.258-.499.379-.12.085-.244.164-.367.244-.189.122-.378.242-.573.353-.121.069-.242.133-.364.197a10.972 10.972 0 0 1-.999.467c-.217.089-.436.169-.659.245-.129.044-.258.088-.389.128-.227.068-.458.126-.691.18-.131.031-.261.064-.393.091-.249.048-.503.084-.756.117-.12.015-.237.037-.356.049a11.81 11.81 0 0 1-1.134.058c-.382 0-.76-.022-1.133-.058-.121-.012-.239-.034-.358-.049a12.33 12.33 0 0 1-.754-.117c-.134-.027-.264-.061-.396-.092a11.38 11.38 0 0 1-.688-.179c-.132-.04-.261-.084-.392-.129a11.4 11.4 0 0 1-1.033-.406 11.835 11.835 0 0 1-1.555-.853c-.125-.081-.251-.161-.373-.248-.169-.119-.331-.247-.494-.374-.129-.103-.26-.202-.386-.31-.032-.028-.062-.058-.094-.087a10.38 10.38 0 0 1 15.313 0c-.033.029-.062.06-.095.088zM9.107 15.454c.309-.118.621-.224.934-.315.052-.015.104-.027.155-.041.287-.079.575-.149.866-.206.134-.025.271-.042.407-.063.217-.034.434-.071.653-.092.367-.036.737-.058 1.113-.058 6.472 0 11.737 5.339 11.737 11.9 0 .382-.023.758-.057 1.13-.01.105-.026.209-.039.313-.032.272-.071.541-.121.806-.022.111-.046.222-.069.332-.057.259-.123.514-.196.766-.03.105-.059.21-.093.314-.082.255-.173.504-.271.751-.039.096-.073.194-.114.29a11.37 11.37 0 0 1-.352.739c-.061.121-.122.242-.188.361-.143.258-.293.512-.454.757-.125.191-.264.375-.401.56-.211.285-.433.56-.668.824-2.263-2.44-5.386-3.837-8.714-3.837-3.328 0-6.45 1.397-8.714 3.837A11.929 11.929 0 0 1 1.5 26.579c0-5.087 3.17-9.426 7.607-11.125zM55.249 0H8.783a.756.756 0 0 0-.75.76v13.482C3.314 16.295 0 21.051 0 26.579c0 3.512 1.347 6.702 3.531 9.096l-.02.026.492.486c.122.12.254.225.38.341.17.155.337.315.515.462.174.144.356.273.536.406.16.119.316.243.481.355.213.144.434.272.652.403.145.085.285.177.432.257.243.132.494.248.745.364.136.063.268.133.405.191.261.111.529.203.796.296.139.049.274.104.414.148.273.084.551.15.828.217.144.034.285.077.43.107.294.06.593.099.891.138.136.018.267.046.404.06.438.044.878.068 1.323.068.445 0 .886-.024 1.324-.068.133-.014.263-.041.397-.059.301-.04.603-.079.898-.139.142-.029.28-.072.42-.105.282-.067.563-.134.838-.219.137-.043.268-.097.403-.144.271-.094.544-.188.808-.3.133-.057.26-.124.39-.185.257-.118.513-.236.761-.372.143-.077.279-.166.419-.249.223-.133.448-.263.664-.41.165-.111.321-.235.481-.354.179-.133.359-.262.532-.405.187-.153.363-.32.54-.484.118-.108.243-.207.357-.32l.492-.486-.021-.025c.152-.166.307-.328.45-.501h31.861c.414 0 .751-.34.751-.76V.76a.757.757 0 0 0-.751-.76z" mask="url(#b)"/><path fill="#47525D" d="M13.235 18.699c2.485 0 4.507 2.05 4.507 4.57 0 2.52-2.022 4.57-4.507 4.57s-4.507-2.05-4.507-4.57c0-2.52 2.022-4.57 4.507-4.57m0 10.66c3.313 0 6.008-2.731 6.008-6.09 0-3.36-2.695-6.091-6.008-6.091s-6.007 2.732-6.007 6.09c0 3.36 2.694 6.092 6.007 6.092" mask="url(#b)"/><path fill="#9ECBFE" d="M20.797 35.665c-.124.107-.254.206-.382.307-.164.129-.328.257-.5.378-.12.085-.243.164-.366.244a9.169 9.169 0 0 1-.937.55 11.697 11.697 0 0 1-1 .467c-.215.089-.435.17-.658.245-.13.044-.258.088-.388.128a11.32 11.32 0 0 1-.692.18c-.131.03-.261.064-.392.09-.25.05-.503.085-.757.118-.12.016-.237.037-.356.049a11.81 11.81 0 0 1-1.134.058c-.382 0-.76-.022-1.133-.058-.12-.012-.24-.034-.358-.05a11.602 11.602 0 0 1-.754-.116c-.133-.027-.264-.061-.396-.091a12.181 12.181 0 0 1-.688-.18 9.984 9.984 0 0 1-.392-.13 11.4 11.4 0 0 1-1.032-.404 13.196 13.196 0 0 1-.99-.504c-.192-.11-.38-.23-.566-.35-.125-.081-.251-.161-.373-.247-.17-.12-.331-.247-.494-.375-.13-.102-.26-.202-.386-.31-.032-.027-.062-.058-.094-.086a10.379 10.379 0 0 1 15.313 0c-.033.028-.062.059-.095.087m9.04-5.97h4.357v-4.418h-4.357zm10.74 0h4.357v-4.418h-4.357z" mask="url(#b)"/></g></svg>