<svg xmlns="http://www.w3.org/2000/svg" width="56" height="40" viewBox="0 0 56 40"><g fill="#DFDFDF" fill-rule="evenodd"><path d="M29.838 29.695h4.356v-4.418h-4.356v4.418zm-.75 1.521h5.857c.414 0 .75-.34.75-.76v-5.939a.756.756 0 0 0-.75-.761h-5.857a.756.756 0 0 0-.75.761v5.939c0 .42.336.76.75.76zm11.489-1.521h4.357v-4.418h-4.357v4.418zm-.75 1.521h5.857c.414 0 .75-.34.75-.76v-5.939a.756.756 0 0 0-.75-.761h-5.857a.756.756 0 0 0-.75.761v5.939c0 .42.336.76.75.76z"/><path d="M54.5 33.654H24.476c.098-.158.184-.32.276-.483.049-.088.1-.173.148-.262.183-.342.348-.692.498-1.048.028-.063.052-.128.078-.192.131-.324.252-.653.357-.987l.06-.189c.12-.396.224-.796.306-1.203l.009-.046a14.065 14.065 0 0 0 .201-1.432 14 14 0 0 0 .063-1.233c0-7.4-5.938-13.42-13.237-13.42a13.101 13.101 0 0 0-2.3.216c-.476.085-.944.192-1.402.327V1.522h44.965v32.132zm-33.703 2.011c-.123.107-.253.205-.381.306-.165.13-.329.258-.5.378-.12.086-.244.164-.367.245-.189.122-.377.242-.572.353-.122.07-.242.133-.364.197a10.972 10.972 0 0 1-1 .467 9.99 9.99 0 0 1-.659.245c-.128.044-.258.088-.389.128-.227.068-.457.126-.69.18-.132.031-.261.064-.393.091-.25.048-.503.084-.756.117-.12.015-.238.037-.357.048-.373.037-.75.06-1.133.06s-.76-.023-1.134-.06c-.12-.012-.239-.033-.357-.049a11.6 11.6 0 0 1-.754-.116c-.134-.027-.264-.06-.396-.092a11.38 11.38 0 0 1-.689-.179c-.132-.04-.26-.084-.392-.129a11.4 11.4 0 0 1-1.032-.406 11.835 11.835 0 0 1-1.555-.853c-.125-.08-.251-.16-.373-.248-.17-.119-.332-.247-.495-.375-.128-.102-.26-.2-.386-.309-.032-.028-.061-.058-.093-.087a10.38 10.38 0 0 1 15.313 0c-.034.03-.063.06-.096.088zm-11.69-20.21c.31-.119.622-.225.934-.316.053-.015.104-.027.155-.04.287-.08.575-.15.867-.207.133-.025.27-.042.406-.063.218-.034.434-.07.654-.092.367-.036.737-.058 1.113-.058 6.471 0 11.736 5.34 11.736 11.9 0 .382-.023.758-.056 1.13-.01.105-.026.21-.04.313a11.85 11.85 0 0 1-.12.806l-.07.331c-.056.26-.122.515-.195.767-.03.105-.06.21-.093.314-.082.254-.174.504-.271.751-.04.096-.073.194-.114.29-.108.252-.229.496-.353.74a12.023 12.023 0 0 1-.642 1.118c-.125.19-.264.374-.4.56-.211.284-.433.56-.668.823-2.264-2.44-5.386-3.837-8.714-3.837-3.329 0-6.45 1.397-8.715 3.837a11.931 11.931 0 0 1-3.02-7.943c0-5.087 3.17-9.426 7.607-11.125zM55.25 0H8.784a.756.756 0 0 0-.75.76v13.481C3.314 16.295 0 21.051 0 26.58c0 3.512 1.347 6.702 3.531 9.096l-.02.026.492.486c.122.12.255.225.38.34.17.156.338.316.516.463.173.143.356.273.535.406.16.12.316.243.481.355.213.144.434.272.652.403.146.085.285.177.433.257.242.132.494.247.745.364.135.063.267.132.404.191.262.111.53.203.796.296.14.048.274.104.415.148.273.084.55.15.828.216.143.035.284.078.43.108.293.06.592.098.89.138.137.018.268.046.405.06.438.044.877.068 1.322.068.446 0 .886-.024 1.325-.068.133-.014.262-.04.396-.059.302-.04.604-.079.899-.139.141-.03.28-.072.42-.105.282-.068.563-.134.838-.22.137-.042.268-.096.402-.143.271-.094.544-.188.808-.3.133-.057.26-.124.39-.185.258-.118.514-.236.761-.372.143-.077.28-.166.42-.249.223-.133.448-.263.664-.41.165-.112.32-.235.48-.354.18-.134.36-.262.532-.405.188-.153.363-.32.54-.484.119-.108.244-.207.358-.32l.491-.486-.02-.025c.151-.166.306-.328.45-.5h31.86c.414 0 .752-.34.752-.76V.76a.757.757 0 0 0-.752-.76z"/><path d="M13.236 18.7c2.485 0 4.507 2.05 4.507 4.57 0 2.52-2.022 4.57-4.507 4.57s-4.507-2.05-4.507-4.57c0-2.52 2.022-4.57 4.507-4.57m0 10.66c3.313 0 6.008-2.732 6.008-6.09 0-3.36-2.695-6.092-6.008-6.092S7.229 19.91 7.229 23.27c0 3.36 2.694 6.091 6.007 6.091"/></g></svg>