<svg width="54" height="53" viewBox="0 0 54 53" fill="none" xmlns="http://www.w3.org/2000/svg"><g clip-path="url(#a)"><ellipse cx="42.778" cy="25.012" rx=".784" ry=".77" fill="url(#b)"/><path fill-rule="evenodd" clip-rule="evenodd" d="M8.27 25.063c.12.202.192.532.119 1.112-.042.335.2.64.54.68a.62.62 0 0 0 .693-.53c.09-.704.038-1.346-.279-1.878-.324-.544-.86-.863-1.494-1.056-.554-.17-.854-.446-1.003-.727-.152-.286-.185-.646-.068-1.043a.608.608 0 0 0-.425-.755.623.623 0 0 0-.77.417c-.189.644-.164 1.336.16 1.946.328.616.923 1.079 1.738 1.327.46.14.676.317.79.507z" fill="url(#c)"/><rect width="7.18" height="5.57" rx="2" transform="matrix(.86301 .50519 -.51931 .85459 14.148 18.816)" fill="url(#d)"/><path d="M13.307 22.986l.414.242.483-.794.84.492-.482.794.413.242 1.169-1.923-.413-.242-.482.794-.841-.492.482-.794-.415-.242-1.168 1.923zM16.012 24.569c.596.35 1.178.198 1.544-.402.364-.6.221-1.172-.37-1.518l-.7-.41-1.169 1.923.695.407zm-.07-.513l.746-1.226.264.155c.368.215.45.512.19.94-.26.429-.568.501-.936.285l-.263-.154z" fill="#fff"/><path fill-rule="evenodd" clip-rule="evenodd" d="M12.975 8.382l-2.242-.142c-.393-.025-.645.46-.4.77l.44.556-2.406 2.13c-.096.085-.236.077-.312-.02L6.564 9.795c-.228-.287-.647-.314-.936-.059l-3.116 2.758c-.289.255-.338.697-.11.985l.276.347c.228.287.647.314.935.059l2.073-1.834c.096-.085.236-.077.312.02l1.491 1.882c.228.287.647.314.935.059l3.45-3.057.44.556c.246.31.744.133.79-.28l.26-2.357c.029-.257-.146-.476-.389-.491z" fill="url(#e)"/><rect width="23.446" height="6.18" rx="3" transform="matrix(.90414 -.42723 .4404 .8978 23.8 24.098)" fill="url(#f)"/><rect width="15.005" height="1.236" rx=".618" transform="matrix(.90414 -.42723 .4404 .8978 28.845 24.445)" fill="#fff"/><path d="M3.058 32.698c-.8 1.334.161 3.029 1.715 3.029h10.9l6.274-10.468H7.517l-4.46 7.44z" fill="#BAE7FF"/><path d="M7.458 25.258h25.69V53H9.458a2 2 0 0 1-2-2V25.258z" fill="#CAF0FF"/><path d="M33.148 25.258h11.606V51a2 2 0 0 1-2 2h-9.606V25.258z" fill="#93E0FF"/><path d="M33.148 25.258h14.43l3.645 7.603a2 2 0 0 1-1.803 2.865h-9.994a2 2 0 0 1-1.804-1.136l-4.474-9.332z" fill="#BAE7FF"/><ellipse opacity=".4" cx="27.964" cy="8.022" rx="4.078" ry="4.002" fill="#FFC450"/><path d="M28.63 12.126c.37.899 1.539 1.037 2.131.353l-2.13-.353zm-1.257-3.052l1.257 3.052.387-4.707c-.99-.394-2.09.572-1.644 1.654zm4.754-.421l-3.11-1.234 2.959 4.54.7.713h.001a1.217 1.217 0 0 0-.001-1.74l-.167-.164c.68-.6.516-1.76-.382-2.115zm-3.847.625z" fill="#47525D" stroke="#fff" stroke-width="2"/><path d="M27.65 7.716l-1.098-1.078m2.039.616v-.77M27.336 8.95h-.94" stroke="#47525D" stroke-linecap="round" stroke-linejoin="round"/><ellipse cx="40.268" cy="8.387" rx=".784" ry=".77" fill="#00C1FF"/><ellipse cx="12.036" cy="2.535" rx=".784" ry=".77" fill="#00C1FF"/><ellipse cx="51.875" cy="18.856" rx=".784" ry=".77" fill="#00C1FF"/><path fill-rule="evenodd" clip-rule="evenodd" d="M16.08 2.326c-.147-.185-.432-.373-1.008-.522a.609.609 0 0 1-.443-.745.623.623 0 0 1 .759-.434c.7.18 1.288.466 1.673.952.394.497.497 1.104.445 1.754-.047.567.104.944.314 1.184.214.245.543.408.962.45.341.033.59.332.556.667a.619.619 0 0 1-.68.546c-.68-.067-1.325-.347-1.782-.869-.46-.527-.677-1.24-.61-2.075.039-.472-.049-.735-.186-.908z" fill="url(#g)"/><path fill-rule="evenodd" clip-rule="evenodd" d="M38.079 5.783c-.136.193-.232.517-.204 1.101a.615.615 0 0 1-.59.639.617.617 0 0 1-.651-.58c-.035-.71.066-1.346.422-1.853.365-.519.923-.797 1.57-.943.566-.127.887-.381 1.057-.65.174-.274.234-.631.148-1.035a.61.61 0 0 1 .482-.722.621.621 0 0 1 .735.473c.14.656.061 1.344-.31 1.928-.373.59-1.002 1.008-1.833 1.195-.47.106-.699.267-.826.447z" fill="url(#h)"/><path fill-rule="evenodd" clip-rule="evenodd" d="M51.644 11.467c.221-.088.564-.11 1.139.045a.623.623 0 0 0 .764-.426.609.609 0 0 0-.435-.75c-.698-.188-1.352-.23-1.934 0-.596.236-.994.71-1.28 1.299-.251.513-.574.765-.878.87-.31.106-.678.085-1.062-.085a.626.626 0 0 0-.822.304.605.605 0 0 0 .31.807c.622.277 1.322.352 1.984.125.668-.229 1.22-.74 1.589-1.495.208-.427.417-.611.625-.694z" fill="url(#i)"/><rect x="19.407" y="15.008" width="1.882" height="1.847" rx=".924" fill="url(#j)"/><path d="M28.192 17.55c.415-.24.935.047.94.52a.63.63 0 0 1-.936.55.613.613 0 0 1-.004-1.07z" fill="url(#k)"/><path d="M1.16 19.509c-.278-.39-.019-.934.464-.975a.614.614 0 0 1 .612.875.63.63 0 0 1-1.077.1z" fill="url(#l)"/><path fill-rule="evenodd" clip-rule="evenodd" d="M26.635 39.173c0-1.694-.988-3.117-2.434-3.8a4.23 4.23 0 0 0-3.808-2.389c-1.725 0-3.176.97-3.87 2.39a4.162 4.162 0 0 0-2.435 3.799c0 1.632.988 3.056 2.434 3.737.695 1.458 2.193 2.39 3.87 2.39 1.663 0 3.114-.97 3.809-2.39 1.485-.681 2.434-2.152 2.434-3.737zm-4.994-1.348c.156.413.25.842.25 1.286 0 .452-.094.881-.25 1.287a3.821 3.821 0 0 1-1.31.245c-.461 0-.898-.092-1.312-.245a3.632 3.632 0 0 1-.25-1.287c0-.451.094-.88.25-1.286a3.825 3.825 0 0 1 1.311-.245c.46 0 .89.092 1.311.245zm-1.248-4.044a3.42 3.42 0 0 1 2.622 1.225 1.767 1.767 0 0 0-.687-.061c-1.747-.027-3.222.981-3.87 2.45-.032-.013-.032-.013 0 0a3.317 3.317 0 0 0-.375 1.716c-.027.212-.004.447.062.674a3.332 3.332 0 0 1-1.248-2.573c0-1.9 1.56-3.431 3.496-3.431zm-5.494 5.33c0-.988.456-1.936 1.249-2.573-.067.228-.09.463-.063.674-.027 1.714 1 3.162 2.497 3.799-.014.03-.014.03 0 0a3.487 3.487 0 0 0 1.748.367c.216.027.455.005.687-.06a3.445 3.445 0 0 1-2.622 1.225c-1.936 0-3.496-1.532-3.496-3.432zm5.431 5.27a3.42 3.42 0 0 1-2.622-1.226c.232.066.472.088.687.062 1.747.026 3.222-.982 3.87-2.451.032.014.032.014 0 0 .271-.517.402-1.086.375-1.716a1.672 1.672 0 0 0-.062-.674 3.332 3.332 0 0 1 1.248 2.574c0 1.9-1.56 3.43-3.496 3.43zm1.686-7.108c.014-.03.014-.03 0 0a3.486 3.486 0 0 0-1.748-.367 1.765 1.765 0 0 0-.687.061 3.444 3.444 0 0 1 2.622-1.225c1.936 0 3.496 1.531 3.496 3.43 0 .99-.456 1.937-1.249 2.574.067-.227.09-.462.063-.674.027-1.714-1-3.162-2.497-3.799z" fill="#93E0FF"/></g><defs><linearGradient id="b" x1="43.562" y1="25.782" x2="41.814" y2="25.514" gradientUnits="userSpaceOnUse"><stop offset=".287" stop-color="#516BF0"/><stop offset="1" stop-color="#19AEFF"/></linearGradient><linearGradient id="c" x1="5.605" y1="21.778" x2="10.37" y2="24.142" gradientUnits="userSpaceOnUse"><stop offset=".287" stop-color="#516BF0"/><stop offset="1" stop-color="#19AEFF"/></linearGradient><linearGradient id="d" x1="7.18" y1="2.785" x2="0" y2="2.785" gradientUnits="userSpaceOnUse"><stop stop-color="#181BA3"/><stop offset="1" stop-color="#516BF0"/></linearGradient><linearGradient id="e" x1="11.718" y1="16.33" x2="1.633" y2="11.44" gradientUnits="userSpaceOnUse"><stop offset=".287" stop-color="#516BF0"/><stop offset="1" stop-color="#19AEFF"/></linearGradient><linearGradient id="f" y1="3.09" x2="23.446" y2="3.09" gradientUnits="userSpaceOnUse"><stop stop-color="#FE7A60"/><stop offset="1" stop-color="#FD5E60"/></linearGradient><linearGradient id="g" x1="15.2" y1="1.237" x2="18.61" y2="5.656" gradientUnits="userSpaceOnUse"><stop stop-color="#FE7A60"/><stop offset="1" stop-color="#FD5E60"/></linearGradient><linearGradient id="h" x1="40.988" y1="2.705" x2="36.052" y2="4.701" gradientUnits="userSpaceOnUse"><stop offset=".287" stop-color="#516BF0"/><stop offset="1" stop-color="#19AEFF"/></linearGradient><linearGradient id="i" x1="52.961" y1="10.958" x2="47.743" y2="13.077" gradientUnits="userSpaceOnUse"><stop stop-color="#FE7A60"/><stop offset="1" stop-color="#FD5E60"/></linearGradient><linearGradient id="j" x1="19.407" y1="15.931" x2="21.29" y2="15.931" gradientUnits="userSpaceOnUse"><stop stop-color="#FE7A60"/><stop offset="1" stop-color="#FD5E60"/></linearGradient><linearGradient id="k" x1="28.981" y1="19.762" x2="26.781" y2="18.013" gradientUnits="userSpaceOnUse"><stop offset=".287" stop-color="#516BF0"/><stop offset="1" stop-color="#19AEFF"/></linearGradient><linearGradient id="l" x1="1.137" y1="20.264" x2="2.167" y2="18.017" gradientUnits="userSpaceOnUse"><stop stop-color="#FE7A60"/><stop offset="1" stop-color="#FD5E60"/></linearGradient><clipPath id="a"><path fill="#fff" d="M0 0h54v53H0z"/></clipPath></defs></svg>