<svg id="Layer_1" xmlns="http://www.w3.org/2000/svg" viewBox="0 0 128 128"><style>.st0{fill:#1c1f20}</style><title>standard</title><g id="Layer_2_1_"><path class="st0" d="M104.1 24C96.1 9.3 80.8.1 64 0 47.3 0 31.9 9.1 24 23.9 9.3 31.9.1 47.2 0 64c0 16.7 9.1 32.1 23.9 40 8 14.7 23.4 23.9 40.1 24 16.7 0 32.1-9.1 40-23.9 14.7-8 23.9-23.4 24-40.1 0-16.7-9.1-32.1-23.9-40zM80.6 45.7h-.2C75.2 43.3 69.7 42.1 64 42c-2.3 0-4.5.2-6.7.6 11.8-13.8 32.5-15.5 46.4-3.8s15.5 32.5 3.8 46.4c-1.1 1.4-2.4 2.6-3.8 3.8 3-18-6.5-35.8-23.1-43.3zM64 115.2c-9.6 0-18.7-4.2-25-11.5 18 3 35.8-6.5 43.3-23.1v-.2c2.3-5.1 3.6-10.7 3.6-16.4 0-2.3-.2-4.5-.6-6.7 13.8 11.8 15.4 32.6 3.6 46.4-6.1 7.3-15.3 11.5-24.9 11.5zM47.5 82.3h.2c5.1 2.3 10.7 3.6 16.4 3.6 2.3 0 4.5-.2 6.7-.6-11.8 13.8-32.5 15.5-46.4 3.8S8.8 56.6 20.6 42.8c1.1-1.4 2.4-2.6 3.8-3.8-3.1 18 6.4 35.8 23.1 43.3zM64 12.8c9.6 0 18.7 4.2 25 11.5-18-3-35.8 6.5-43.3 23.1v.2c-2.3 5.1-3.6 10.7-3.6 16.4 0 2.3.2 4.5.6 6.7C28.8 58.9 27.2 38.1 39 24.3c6.3-7.3 15.4-11.5 25-11.5zm0 36.6c4.2 0 8.3.8 12.1 2.4 3.3 7.8 3.3 16.6.1 24.4-7.8 3.3-16.6 3.3-24.4.1-3.3-7.8-3.3-16.6-.1-24.4 3.9-1.7 8.1-2.5 12.3-2.5z" id="Layer_1-2"/></g></svg>