<svg width="10" height="13" viewBox="0 0 10 13" fill="none" xmlns="http://www.w3.org/2000/svg"><path fill-rule="evenodd" clip-rule="evenodd" d="M8.845 5.365c0 .998.34 1.963.958 2.718.394.483.186 1.437-.535 1.437H.76c-.713 0-.97-.923-.572-1.437.618-.755.958-1.72.959-2.718 0-2.455 1.297-3.892 2.931-4.285a1.084 1.084 0 0 1 0-.11c0-.536.412-.97.918-.97.507 0 .918.434.918.97a.97.97 0 0 1 0 .11c1.669.412 2.932 1.866 2.932 4.285zm-2 5.135c-.23.893-.907 1.501-1.673 1.503-.766-.002-1.443-.61-1.672-1.503h3.344z" fill="#fff"/></svg>