<svg width="50" height="50" viewBox="0 0 50 50" fill="none" xmlns="http://www.w3.org/2000/svg">
<path fill-rule="evenodd" clip-rule="evenodd" d="M25 50C38.8071 50 50 38.8071 50 25C50 11.1929 38.8071 0 25 0C11.1929 0 0 11.1929 0 25C0 38.8071 11.1929 50 25 50Z" fill="#9ECBFE"/>
<path fill-rule="evenodd" clip-rule="evenodd" d="M25 17C20.581 17 17 20.581 17 25C17 26.5581 17.4533 28.0057 18.2229 29.2362L17.0648 31.9371C16.7943 32.5695 17.4343 33.2057 18.0629 32.9352L20.7676 31.7771C21.9943 32.5467 23.4419 33 25 33C29.419 33 33 29.419 33 25C33 20.581 29.419 17 25 17Z" fill="white"/>
</svg>
