<svg width="159" height="101" viewBox="0 0 159 101" xmlns="http://www.w3.org/2000/svg"><title>graphic_empty-state</title><defs><linearGradient x1="0%" y1="50%" y2="50%" id="a"><stop stop-color="#FE7A60" offset="0%"/><stop stop-color="#FF4B57" offset="100%"/></linearGradient></defs><g fill="none" fill-rule="evenodd"><path d="M63.44 15.89a10.4 10.4 0 0 1 16.37 8.52H31a16.91 16.91 0 1 1 32.39-8.52M157 101a11.31 11.31 0 0 0-13.69-16.67A15.94 15.94 0 0 0 112.59 90a8.22 8.22 0 0 0-11 11H157z" fill="#D4D9DD" fill-rule="nonzero" opacity=".53"/><path stroke="#45525E" stroke-width="1.5" fill="#FFF" fill-rule="nonzero" stroke-linecap="round" stroke-linejoin="round" d="M41.56 43.09L29.82 64.15l14.4-3.39m85.59-16.45l-88.25-1.22 4.45 26.72"/><rect fill="url(#a)" fill-rule="nonzero" x="53.77" y="21.25" width="42.43" height="37.74" rx="1.25"/><path d="M94.95 22a.5.5 0 0 1 .5.5v35.24a.5.5 0 0 1-.5.5H55a.5.5 0 0 1-.5-.5V22.5a.5.5 0 0 1 .5-.5h39.95zm0-1.5H55a2 2 0 0 0-2 2v35.24a2 2 0 0 0 2 2h39.95a2 2 0 0 0 2-2V22.5a2 2 0 0 0-2-2z" fill="#45525E" fill-rule="nonzero"/><path d="M55.05 59c-.69 0-1.25-.56-1.25-1.25v-5h42.37v5A1.25 1.25 0 0 1 94.91 59H55.05z" fill="#FFF" fill-rule="nonzero"/><path d="M95.42 53.5v4.24a.5.5 0 0 1-.5.5H55.05a.5.5 0 0 1-.5-.5V53.5h40.87zm1.5-1.5H53.05v5.74a2 2 0 0 0 2 2h39.86a2 2 0 0 0 2-2V52h.01z" fill="#45525E" fill-rule="nonzero"/><path d="M71.47 32.39v8.73a.9.9 0 0 0 1.38.76l7-4.37a.9.9 0 0 0 0-1.53l-7-4.37a.9.9 0 0 0-1.38.78zm-20.2 17.99l-5.26 19.43 11.27-3.75" stroke="#45525E" stroke-width="1.5" fill="#FFF" fill-rule="nonzero" stroke-linecap="round" stroke-linejoin="round"/><path stroke="#45525E" stroke-width="1.5" fill="#FFF" fill-rule="nonzero" stroke-linecap="round" stroke-linejoin="round" d="M51.27 50.38l78.54-6.07-69.23 30.36z"/><path d="M38 71.19a26 26 0 0 1-12.61 7c-3.93.9-8.68-.09-11.58-3A8.68 8.68 0 0 1 11.6 68a4 4 0 0 1 6.7-2c.52.528.87 1.2 1 1.93 1 5-3.09 5.43-6.77 6.47-3.21.91-6.4 1.78-8.87 4.18-2.35 2.19-3.66 5.71-2.49 8.7" stroke="#45525E" stroke-width="1.5" stroke-linecap="round" stroke-linejoin="round"/></g></svg>