<svg width="50" height="50" viewBox="0 0 50 50" fill="none" xmlns="http://www.w3.org/2000/svg">
<g id="Graph">
<path id="Oval 3" fill-rule="evenodd" clip-rule="evenodd" d="M25 50C38.8071 50 50 38.8071 50 25C50 11.1929 38.8071 0 25 0C11.1929 0 0 11.1929 0 25C0 38.8071 11.1929 50 25 50Z" fill="#3CD788"/>
<g id="16/analytics">
<path id="Fill 158.1" fill-rule="evenodd" clip-rule="evenodd" d="M31.5759 18.0128L28.0641 18.7153C27.4492 18.8383 27.2655 19.7045 27.7734 20.089L28.6835 20.7788L25.8741 25.1137C25.7621 25.2866 25.5432 25.3304 25.386 25.2114L22.2989 22.8738C21.8268 22.5169 21.1709 22.6481 20.834 23.1668L17.195 28.7788C16.8582 29.2975 16.9688 30.0122 17.4412 30.3691L18.011 30.7991C18.4834 31.1559 19.139 31.0248 19.4758 30.506L21.8958 26.7737C22.0079 26.6008 22.2264 26.5571 22.384 26.676L25.4711 29.0136C25.9432 29.3705 26.5991 29.2393 26.9356 28.7206L30.9638 22.5023L31.8742 23.1921C32.3822 23.5766 33.0743 23.0948 32.9712 22.4287L32.3822 18.6231C32.3179 18.2077 31.9571 17.9366 31.5759 18.0128Z" fill="white"/>
</g>
</g>
</svg>
