<svg width="48" height="48" viewBox="0 0 48 48" fill="none" xmlns="http://www.w3.org/2000/svg">
<rect width="48" height="48" rx="24" fill="#FD5E60"/>
<path fill-rule="evenodd" clip-rule="evenodd" d="M36 24.0597C36 20.76 34.11 17.985 31.3433 16.6567C30.015 13.815 27.15 12 24.0597 12C20.76 12 17.985 13.89 16.6567 16.6567C13.815 17.985 12 20.85 12 24.0597C12 27.24 13.89 30.015 16.6567 31.3433C17.985 34.185 20.85 36 24.0597 36C27.24 36 30.015 34.11 31.3433 31.3433C34.185 30.015 36 27.15 36 24.0597ZM26.4478 21.4328C26.7463 22.2388 26.9254 23.0746 26.9254 23.9403C26.9254 24.8209 26.7463 25.6567 26.4478 26.4478C25.6418 26.7463 24.806 26.9254 23.9403 26.9254C23.0597 26.9254 22.2239 26.7463 21.4328 26.4478C21.1343 25.6418 20.9552 24.806 20.9552 23.9403C20.9552 23.0597 21.1343 22.2239 21.4328 21.4328C22.2388 21.1343 23.0746 20.9552 23.9403 20.9552C24.8209 20.9552 25.6418 21.1343 26.4478 21.4328ZM24.0597 13.5522C25.9867 13.5522 27.8336 14.4239 29.0746 15.9403C28.6314 15.8128 28.1734 15.7684 27.7612 15.8209C24.4206 15.7684 21.5987 17.7335 20.3582 20.597C20.2985 20.5702 20.2985 20.5702 20.3582 20.597C19.8405 21.6044 19.5893 22.7125 19.6418 23.9403C19.5893 24.3525 19.6336 24.8105 19.7612 25.2537C18.2596 24.0127 17.3731 22.1658 17.3731 20.2388C17.3731 16.5367 20.3576 13.5522 24.0597 13.5522ZM13.5522 23.9403C13.5522 22.0133 14.4239 20.1664 15.9403 18.9254C15.8128 19.3686 15.7684 19.8266 15.8209 20.2388C15.7684 23.5794 17.7335 26.4013 20.597 27.6418C20.5702 27.7015 20.5702 27.7015 20.597 27.6418C21.6044 28.1595 22.7125 28.4107 23.9403 28.3582C24.3525 28.4107 24.8105 28.3664 25.2537 28.2388C24.0127 29.7404 22.1658 30.6269 20.2388 30.6269C16.5367 30.6269 13.5522 27.6424 13.5522 23.9403ZM23.9403 34.209C22.0133 34.209 20.1664 33.3373 18.9254 31.8209C19.3686 31.9484 19.8266 31.9928 20.2388 31.9403C23.5794 31.9928 26.4013 30.0277 27.6418 27.1642C27.7015 27.191 27.7015 27.191 27.6418 27.1642C28.1595 26.1568 28.4107 25.0487 28.3582 23.8209C28.4107 23.4087 28.3664 22.9507 28.2388 22.5075C29.7404 23.7485 30.6269 25.5954 30.6269 27.5224C30.6269 31.2245 27.6424 34.209 23.9403 34.209ZM27.1642 20.3582C27.191 20.2985 27.191 20.2985 27.1642 20.3582C26.1568 19.8405 25.0487 19.5893 23.8209 19.6418C23.4087 19.5893 22.9507 19.6336 22.5075 19.7612C23.7485 18.2596 25.5954 17.3731 27.5224 17.3731C31.2245 17.3731 34.209 20.3576 34.209 24.0597C34.209 25.9867 33.3373 27.8336 31.8209 29.0746C31.9484 28.6314 31.9928 28.1734 31.9403 27.7612C31.9928 24.4206 30.0277 21.5987 27.1642 20.3582Z" fill="white"/>
</svg>
