<svg width="50" height="50" viewBox="0 0 50 50" fill="none" xmlns="http://www.w3.org/2000/svg">
<path fill-rule="evenodd" clip-rule="evenodd" d="M25 50C38.8071 50 50 38.8071 50 25C50 11.1929 38.8071 0 25 0C11.1929 0 0 11.1929 0 25C0 38.8071 11.1929 50 25 50Z" fill="#FEB160"/>
<path fill-rule="evenodd" clip-rule="evenodd" d="M27.6263 18.1126C28.659 17.5265 28.9566 17.3576 29.3948 17.6204C29.6397 17.7618 29.7933 18.0204 29.8001 18.3031V28.9698C29.7894 29.2416 29.6434 29.4899 29.4107 29.6311C28.981 29.8848 28.6793 29.7156 27.6929 29.163C27.4556 29.0299 27.1785 28.8747 26.8506 28.6978C25.5818 28.0144 24.2115 27.539 22.792 27.2898L24.0613 29.5191C25.544 32.1325 20.9573 33.7218 20.5254 30.7244L19.992 27.0498C18.2056 26.7871 16.92 25.1972 17.0369 23.3953C17.1541 21.5934 18.6346 20.1831 20.44 20.1538C22.6729 20.1585 24.8721 19.6087 26.8401 18.5538C27.1429 18.3871 27.4019 18.24 27.6263 18.1126ZM30.8668 25.5V21.8467C31.8033 21.9179 32.5128 22.722 32.4669 23.6601C32.5279 24.6083 31.8143 25.4289 30.8668 25.5Z" fill="white"/>
</svg>
