<svg width="50" height="50" viewBox="0 0 50 50" fill="none" xmlns="http://www.w3.org/2000/svg">
<path fill-rule="evenodd" clip-rule="evenodd" d="M25 50C38.8071 50 50 38.8071 50 25C50 11.1929 38.8071 0 25 0C11.1929 0 0 11.1929 0 25C0 38.8071 11.1929 50 25 50Z" fill="#929EAA"/>
<path fill-rule="evenodd" clip-rule="evenodd" d="M21.8274 26.4955C21.4229 26.3455 20.9927 26.2677 20.5583 26.2661V26.2609C18.9556 26.259 17.5505 27.2778 17.1301 28.7465C16.7097 30.2152 17.3784 31.7693 18.7615 32.5382C20.1448 33.3073 21.8989 33.1002 23.042 32.0332C24.1848 30.9661 24.4326 29.304 23.6465 27.9777L33 19.0952C32.2241 18.3584 31.1487 17.9789 30.0542 18.0557C28.96 18.1324 27.9548 18.658 27.3013 19.4951L24.5784 22.9446L23.6465 22.0382C24.498 20.6106 24.145 18.8083 22.8098 17.767C21.4746 16.7256 19.5442 16.7469 18.2351 17.8175C16.9258 18.8881 16.6172 20.6978 17.5034 22.1061C18.3896 23.5145 20.2144 24.1135 21.8274 23.5258L22.9895 25.0079L21.8274 26.4955ZM30.0554 31.9626C31.1499 32.0385 32.2249 31.6581 33 30.9205L27.5876 25.7916L25.2971 27.9669L27.3013 30.526C27.9558 31.3624 28.9612 31.8868 30.0554 31.9626ZM20.5586 19.09C19.8049 19.09 19.1943 19.6699 19.1943 20.3855C19.1943 21.1011 19.8049 21.681 20.5586 21.681C21.312 21.681 21.9229 21.1011 21.9229 20.3855C21.9243 20.041 21.7812 19.7101 21.5251 19.4659C21.2693 19.2218 20.9214 19.0846 20.5586 19.0846V19.09ZM21.9229 29.641C21.9229 30.3566 21.312 30.9366 20.5586 30.9366V30.9313C19.8071 30.9313 19.1973 30.3545 19.1943 29.641C19.1943 28.9255 19.8052 28.3455 20.5586 28.3455C21.312 28.3455 21.9229 28.9255 21.9229 29.641Z" fill="white"/>
</svg>
