<svg width="114" height="18" viewBox="0 0 114 18" fill="none" xmlns="http://www.w3.org/2000/svg"><path fill-rule="evenodd" clip-rule="evenodd" d="M2.411.017c.116-.029.233-.029.349.059a.884.884 0 0 1 .145.203v17.163c0 .175-.116.291-.29.291H.29c-.174 0-.29-.116-.29-.29V1.21c0-.116.058-.204.174-.262l2.237-.93zm15.396 11.374c0-3.84-2.73-6.604-6.536-6.604-3.864 0-6.565 2.706-6.565 6.575 0 3.898 2.701 6.603 6.565 6.603 3.776-.029 6.536-2.763 6.536-6.574zm-10.371-.058c0-2.357 1.598-4.073 3.835-4.073 2.207 0 3.805 1.746 3.805 4.13 0 2.357-1.598 4.073-3.805 4.073-2.208 0-3.835-1.774-3.835-4.13zm24.838.058c0-3.84-2.73-6.604-6.536-6.604-3.864 0-6.566 2.706-6.566 6.575 0 3.898 2.702 6.603 6.566 6.603 3.805-.029 6.536-2.763 6.536-6.574zm-10.37-.058c0-2.357 1.597-4.073 3.834-4.073 2.208 0 3.805 1.746 3.805 4.13 0 2.357-1.597 4.073-3.805 4.073-2.179 0-3.835-1.774-3.835-4.13zm28.439 6.139c0 .174.116.29.29.29h2.324c.175 0 .29-.116.29-.29V10.49c0-2.182-.61-3.753-1.8-4.654-.959-.728-2.092-.902-2.847-.902-2.092 0-3.312 1.222-4.009 2.269l-.087.116-.058-.116a4.067 4.067 0 0 0-1.598-1.687c-.668-.379-1.481-.582-2.382-.582-1.278 0-2.411.465-3.312 1.396l-.145.146V5.399c0-.174-.116-.29-.29-.29h-2.325c-.174 0-.29.116-.29.29v12.073c0 .174.116.29.29.29h2.325c.174 0 .29-.116.29-.29v-7.273c0-1.425 1.133-2.618 2.556-2.647 1.453-.03 2.644 1.164 2.644 2.618v7.302c0 .174.116.29.29.29h2.324c.175 0 .29-.116.29-.29v-7.273c0-1.425 1.134-2.618 2.557-2.647 1.453-.03 2.644 1.164 2.644 2.618v7.302h.029z" fill="#FD5F60"/><mask id="a" maskUnits="userSpaceOnUse" x="0" y="0" width="54" height="18"><path fill-rule="evenodd" clip-rule="evenodd" d="M2.411.017c.116-.029.233-.029.349.059a.884.884 0 0 1 .145.203v17.163c0 .175-.116.291-.29.291H.29c-.174 0-.29-.116-.29-.29V1.21c0-.116.058-.204.174-.262l2.237-.93zm15.396 11.374c0-3.84-2.73-6.604-6.536-6.604-3.864 0-6.565 2.706-6.565 6.575 0 3.898 2.701 6.603 6.565 6.603 3.776-.029 6.536-2.763 6.536-6.574zm-10.371-.058c0-2.357 1.598-4.073 3.835-4.073 2.207 0 3.805 1.746 3.805 4.13 0 2.357-1.598 4.073-3.805 4.073-2.208 0-3.835-1.774-3.835-4.13zm24.838.058c0-3.84-2.73-6.604-6.536-6.604-3.864 0-6.566 2.706-6.566 6.575 0 3.898 2.702 6.603 6.566 6.603 3.805-.029 6.536-2.763 6.536-6.574zm-10.37-.058c0-2.357 1.597-4.073 3.834-4.073 2.208 0 3.805 1.746 3.805 4.13 0 2.357-1.597 4.073-3.805 4.073-2.179 0-3.835-1.774-3.835-4.13zm28.439 6.139c0 .174.116.29.29.29h2.324c.175 0 .29-.116.29-.29V10.49c0-2.182-.61-3.753-1.8-4.654-.959-.728-2.092-.902-2.847-.902-2.092 0-3.312 1.222-4.009 2.269l-.087.116-.058-.116a4.067 4.067 0 0 0-1.598-1.687c-.668-.379-1.481-.582-2.382-.582-1.278 0-2.411.465-3.312 1.396l-.145.146V5.399c0-.174-.116-.29-.29-.29h-2.325c-.174 0-.29.116-.29.29v12.073c0 .174.116.29.29.29h2.325c.174 0 .29-.116.29-.29v-7.273c0-1.425 1.133-2.618 2.556-2.647 1.453-.03 2.644 1.164 2.644 2.618v7.302c0 .174.116.29.29.29h2.324c.175 0 .29-.116.29-.29v-7.273c0-1.425 1.134-2.618 2.557-2.647 1.453-.03 2.644 1.164 2.644 2.618v7.302h.029z" fill="#fff"/></mask><g mask="url(#a)"><path fill="#fff" d="M-.116-.039h55.308v18.56H-.116z"/><path stroke="#fff" d="M-.116-.039h55.308v18.56H-.116z"/></g><path d="M61.034 13V6.455h1.542V13h-1.542zm.775-7.474a.905.905 0 0 1-.635-.243.789.789 0 0 1-.26-.593.78.78 0 0 1 .26-.592.897.897 0 0 1 .635-.247c.245 0 .454.082.627.247.176.162.264.36.264.592 0 .23-.088.428-.264.593a.885.885 0 0 1-.627.243zm3.896 3.639V13h-1.542V6.455h1.474v1.112h.077c.15-.364.39-.654.72-.87.332-.218.743-.328 1.232-.328.676 0 1.218.215 1.627.644.412.429.617 1.035.614 1.82V13h-1.543V9.071c0-.437-.113-.78-.34-1.027-.225-.247-.536-.37-.934-.37-.406 0-.738.13-.997.391-.258.259-.388.625-.388 1.1zM80.367 7.06c-.14-.463-.385-.827-.738-1.091-.35-.264-.787-.397-1.312-.397-.469 0-.886.118-1.253.354-.366.236-.655.581-.865 1.036-.207.454-.311 1.01-.311 1.666 0 .988.227 1.748.682 2.28.457.528 1.05.792 1.78.792.657 0 1.18-.183 1.57-.55.388-.366.589-.86.6-1.482h-2.011V8.432h3.54V9.48c0 .75-.158 1.398-.477 1.943a3.268 3.268 0 0 1-1.312 1.257c-.557.293-1.196.44-1.918.44-.8 0-1.505-.181-2.113-.542a3.734 3.734 0 0 1-1.424-1.547c-.338-.67-.507-1.466-.507-2.386 0-.938.175-1.742.525-2.412.349-.67.825-1.185 1.427-1.543.602-.358 1.284-.537 2.046-.537.644 0 1.228.124 1.751.371.523.247.953.59 1.291 1.027.338.435.551.938.64 1.509h-1.611zM83.51 13V6.455h1.475v1.112h.076a1.76 1.76 0 0 1 .678-.878c.315-.213.692-.32 1.13-.32.44 0 .813.107 1.12.32.307.213.523.506.648.878h.068a1.79 1.79 0 0 1 .733-.87c.346-.218.757-.328 1.231-.328.603 0 1.094.19 1.475.571.38.381.57.936.57 1.667V13h-1.546V8.845c0-.406-.108-.703-.324-.89a1.156 1.156 0 0 0-.792-.286c-.373 0-.664.117-.874.35-.207.23-.311.53-.311.899V13h-1.513V8.781c0-.338-.102-.608-.307-.81-.201-.201-.466-.302-.792-.302a1.13 1.13 0 0 0-.853.375c-.233.247-.349.572-.349.976V13H83.51zm12.653.132c-.625 0-1.146-.168-1.563-.503-.418-.335-.627-.824-.627-1.466 0-.491.118-.872.354-1.142.238-.272.547-.47.924-.592.381-.125.783-.21 1.206-.256.577-.062.99-.12 1.24-.174.253-.054.38-.192.38-.414V8.56c0-.321-.095-.57-.286-.746-.19-.176-.464-.264-.822-.264-.378 0-.678.082-.9.247-.218.165-.366.36-.443.584l-1.44-.205c.17-.596.503-1.047.997-1.35.497-.305 1.09-.457 1.777-.457.313 0 .625.037.938.111.312.074.598.196.856.367.262.17.47.4.627.69.159.29.238.65.238 1.082V13h-1.483v-.9h-.05c-.14.276-.367.518-.683.725-.312.205-.725.307-1.24.307zM96.564 12c.466 0 .835-.134 1.108-.401a1.28 1.28 0 0 0 .41-.946v-.771c-.066.054-.187.102-.363.145a6.94 6.94 0 0 1-.554.102l-.499.072a2.21 2.21 0 0 0-.86.286c-.23.139-.346.356-.346.652 0 .284.104.498.311.643.208.145.472.218.793.218zM101.171 13V6.455h1.542V13h-1.542zm.775-7.474a.905.905 0 0 1-.635-.243.79.79 0 0 1-.26-.593c0-.233.087-.43.26-.592a.897.897 0 0 1 .635-.247.88.88 0 0 1 .627.247c.176.162.264.36.264.592 0 .23-.088.428-.264.593a.888.888 0 0 1-.627.243zm3.896-1.253V13h-1.543V4.273h1.543z" fill="#fff"/><path stroke="#fff" stroke-width="1.5" d="M61 16.25h46"/></svg>