<svg xmlns="http://www.w3.org/2000/svg" width="46" height="16" viewBox="0 0 46 16"><path d="M15.427 9.948c0-3.341-2.35-5.746-5.625-5.746-3.326 0-5.651 2.354-5.651 5.72 0 3.393 2.325 5.747 5.65 5.747 3.251-.025 5.626-2.405 5.626-5.72zm-8.926-.05c0-2.05 1.375-3.544 3.3-3.544 1.9 0 3.276 1.519 3.276 3.594 0 2.05-1.375 3.544-3.275 3.544S6.5 11.948 6.5 9.898zm21.379.05c0-3.341-2.351-5.746-5.627-5.746-3.325 0-5.65 2.354-5.65 5.72 0 3.393 2.325 5.747 5.65 5.747 3.276-.025 5.626-2.405 5.626-5.72zm-8.927-.05c0-2.05 1.375-3.544 3.3-3.544 1.9 0 3.276 1.519 3.276 3.594 0 2.05-1.375 3.544-3.276 3.544-1.875 0-3.3-1.544-3.3-3.594zm24.704 5.594h2.025c.15 0 .25-.101.25-.253V9.164c0-1.899-.525-3.266-1.55-4.05-.825-.634-1.8-.785-2.45-.785-1.8 0-2.85 1.063-3.451 1.974l-.075.101-.05-.1a3.522 3.522 0 0 0-1.375-1.47c-.575-.328-1.275-.505-2.05-.505-1.1 0-2.076.405-2.851 1.215l-.125.126v-.936c0-.152-.1-.254-.25-.254h-2c-.15 0-.25.102-.25.254v10.505c0 .152.1.253.25.253h2c.15 0 .25-.101.25-.253V8.91c0-1.24.975-2.278 2.2-2.303 1.25-.025 2.276 1.012 2.276 2.278v6.354c0 .152.1.253.25.253h2c.15 0 .25-.101.25-.253V8.91c0-1.24.975-2.278 2.2-2.303 1.25-.025 2.276 1.012 2.276 2.278v6.354c0 .152.1.253.25.253zM2.475.101c-.1-.076-.2-.076-.3-.05L.25.86C.15.91.1.987.1 1.088v14.125c0 .152.1.254.25.254h2c.15 0 .25-.102.25-.254V.278a.77.77 0 0 0-.125-.177z" fill="#47525D" fill-rule="evenodd"/></svg>